<svg width="164.4949981689453px" height="75.68000183105468px" xmlns="http://www.w3.org/2000/svg" viewBox="167.75250091552735 37.15999908447266 164.4949981689453 75.68000183105468" style="background: none;" preserveAspectRatio="xMidYMid"><defs><filter id="editing-hole" x="-100%" y="-100%" width="300%" height="300%"><feFlood flood-color="#cfcfcf" result="black"></feFlood><feMorphology operator="dilate" radius="2" in="SourceGraphic" result="erode"></feMorphology><feGaussianBlur in="erode" stdDeviation="4" result="blur"></feGaussianBlur><feOffset in="blur" dx="2" dy="2" result="offset"></feOffset><feComposite operator="atop" in="offset" in2="black" result="merge"></feComposite><feComposite operator="in" in="merge" in2="SourceGraphic" result="inner-shadow"></feComposite></filter></defs><g filter="url(#editing-hole)"><g transform="translate(195.8899941444397, 87.82999992370605)"><path d="M16.72-23.03L20.47-23.03L20.47 0L16.72 0L16.72-10.38L8.03-10.38L8.03-12.94L16.72-12.94L16.72-23.03ZM2.94 0L2.94-23.03L6.75-23.03L6.75 0L2.94 0ZM29-5.31L29-5.31L29-5.31Q29-3.91 29.58-3.22L29.58-3.22L29.58-3.22Q30.16-2.53 31.25-2.41L31.25-2.41L31.25 0.13L31.25 0.13Q31.13 0.16 30.84 0.16L30.84 0.16L30.84 0.16Q29.78 0.16 28.80-0.13L28.80-0.13L28.80-0.13Q27.81-0.41 27.06-1.03L27.06-1.03L27.06-1.03Q26.31-1.66 25.89-2.69L25.89-2.69L25.89-2.69Q25.47-3.72 25.47-5.22L25.47-5.22L25.47-5.22Q25.47-6.66 26.08-7.70L26.08-7.70L26.08-7.70Q26.69-8.75 27.64-9.42L27.64-9.42L27.64-9.42Q28.59-10.09 29.81-10.42L29.81-10.42L29.81-10.42Q31.03-10.75 32.28-10.75L32.28-10.75L33.66-10.75L33.66-8.53L32.97-8.53L32.97-8.53Q32.34-8.53 31.66-8.41L31.66-8.41L31.66-8.41Q30.97-8.28 30.38-7.94L30.38-7.94L30.38-7.94Q29.78-7.59 29.39-6.95L29.39-6.95L29.39-6.95Q29-6.31 29-5.31ZM38.72-5.47L38.72-5.22L38.72-5.22Q38.72-4.97 38.75-4.48L38.75-4.48L38.75-4.48Q38.78-4 38.88-3.50L38.88-3.50L38.88-3.50Q38.97-3 39.17-2.59L39.17-2.59L39.17-2.59Q39.38-2.19 39.72-2.06L39.72-2.06L38.72 0.03L38.72 0.03Q38.31 0.03 37.86-0.16L37.86-0.16L37.86-0.16Q37.41-0.34 36.98-0.69L36.98-0.69L36.98-0.69Q36.56-1.03 36.27-1.45L36.27-1.45L36.27-1.45Q35.97-1.88 35.81-2.38L35.81-2.38L35.81-2.38Q35.50-1.59 34.58-0.98L34.58-0.98L34.58-0.98Q33.66-0.38 32.53-0.09L32.53-0.09L32.53-2.47L32.53-2.47Q33.28-2.63 33.89-3.08L33.89-3.08L33.89-3.08Q34.50-3.53 34.94-4.16L34.94-4.16L34.94-10.75L34.94-10.75Q34.94-12.28 34.78-13.19L34.78-13.19L34.78-13.19Q34.63-14.09 34.25-14.52L34.25-14.52L34.25-14.52Q33.88-14.94 33.33-15.05L33.33-15.05L33.33-15.05Q32.78-15.16 32.03-15.16L32.03-15.16L32.03-15.16Q31.34-15.16 30.73-14.98L30.73-14.98L30.73-14.98Q30.13-14.81 29.61-14.58L29.61-14.58L29.61-14.58Q29.09-14.34 28.70-14.06L28.70-14.06L28.70-14.06Q28.31-13.78 28.13-13.63L28.13-13.63L26.72-15.78L26.72-15.78Q27.03-16.13 27.66-16.48L27.66-16.48L27.66-16.48Q28.28-16.84 29.09-17.13L29.09-17.13L29.09-17.13Q29.91-17.41 30.86-17.58L30.86-17.58L30.86-17.58Q31.81-17.75 32.84-17.75L32.84-17.75L32.84-17.75Q33.78-17.75 34.67-17.56L34.67-17.56L34.67-17.56Q35.56-17.38 36.30-16.94L36.30-16.94L36.30-16.94Q37.03-16.50 37.58-15.77L37.58-15.77L37.58-15.77Q38.13-15.03 38.34-13.94L38.34-13.94L38.34-13.94Q38.56-12.84 38.64-11.73L38.64-11.73L38.64-11.73Q38.72-10.63 38.72-9.53L38.72-9.53L38.72-5.47ZM44.69-17.63L48.09-17.63L48.50-15.81L48.50 0L44.69 0L44.69-17.63ZM62.84-17.81L62.84-17.81L62.84-17.81Q63.91-17.81 64.84-17.39L64.84-17.39L64.84-17.39Q65.78-16.97 66.48-16.19L66.48-16.19L66.48-16.19Q67.19-15.41 67.58-14.33L67.58-14.33L67.58-14.33Q67.97-13.25 67.97-12L67.97-12L67.97 0L64.22 0L64.22-9.59L64.22-9.59Q64.22-10.66 64.20-11.61L64.20-11.61L64.20-11.61Q64.19-12.56 64-13.31L64-13.31L64-13.31Q63.81-14.06 63.39-14.48L63.39-14.48L63.39-14.48Q62.97-14.91 62.09-14.91L62.09-14.91L62.09-14.91Q61.88-14.91 61.16-14.81L61.16-14.81L61.16-14.81Q60.44-14.72 59.50-14.28L59.50-14.28L59.50-16.75L59.50-16.75Q60.34-17.25 61.22-17.53L61.22-17.53L61.22-17.53Q62.09-17.81 62.84-17.81ZM57.44-15.41L57.44-15.41L57.44-15.41Q57.81-14.84 57.98-14.20L57.98-14.20L57.98-14.20Q58.16-13.56 58.20-12.88L58.20-12.88L58.20-12.88Q58.25-12.19 58.23-11.45L58.23-11.45L58.23-11.45Q58.22-10.72 58.22-9.91L58.22-9.91L58.22 0L54.44 0L54.44-9.59L54.44-9.59Q54.44-10.66 54.44-11.61L54.44-11.61L54.44-11.61Q54.44-12.56 54.25-13.31L54.25-13.31L54.25-13.31Q54.06-14.06 53.63-14.48L53.63-14.48L53.63-14.48Q53.19-14.91 52.34-14.91L52.34-14.91L52.34-14.91Q51.97-14.91 51.23-14.77L51.23-14.77L51.23-14.77Q50.50-14.63 49.78-14.28L49.78-14.28L49.78-16.75L49.78-16.75Q50.53-17.19 51.39-17.47L51.39-17.47L51.39-17.47Q52.25-17.75 53.09-17.75L53.09-17.75L53.09-17.75Q54.53-17.75 55.52-17.16L55.52-17.16L55.52-17.16Q56.50-16.56 57.44-15.41ZM77.13-17.63L77.13 0L73.31 0L73.31-17.63L77.13-17.63ZM77.47-23.25L77.47-23.25L77.47-23.25Q77.47-22.31 76.81-21.67L76.81-21.67L76.81-21.67Q76.16-21.03 75.22-21.03L75.22-21.03L75.22-21.03Q74.28-21.03 73.64-21.69L73.64-21.69L73.64-21.69Q73-22.34 73-23.25L73-23.25L73-23.25Q73-24.19 73.66-24.84L73.66-24.84L73.66-24.84Q74.31-25.50 75.22-25.50L75.22-25.50L75.22-25.50Q76.16-25.50 76.81-24.84L76.81-24.84L76.81-24.84Q77.47-24.19 77.47-23.25ZM93.31-24.28L97.13-24.28L97.13 0L93.53 0L93.31-2.09L93.31-24.28ZM81.31-9.06L81.31-9.06L81.31-9.06Q81.31-11.50 81.98-13.16L81.98-13.16L81.98-13.16Q82.66-14.81 83.72-15.84L83.72-15.84L83.72-15.84Q84.78-16.88 86.08-17.33L86.08-17.33L86.08-17.33Q87.38-17.78 88.63-17.78L88.63-17.78L88.63-17.78Q89.59-17.78 90.47-17.56L90.47-17.56L90.47-17.56Q91.34-17.34 92.03-16.94L92.03-16.94L92.03-13.63L92.03-13.63Q91.50-14.19 90.84-14.53L90.84-14.53L90.84-14.53Q90.19-14.88 89.38-14.88L89.38-14.88L89.38-14.88Q88.41-14.88 87.66-14.39L87.66-14.39L87.66-14.39Q86.91-13.91 86.39-13.06L86.39-13.06L86.39-13.06Q85.88-12.22 85.59-11.13L85.59-11.13L85.59-11.13Q85.31-10.03 85.31-8.78L85.31-8.78L85.31-8.78Q85.31-7.53 85.63-6.45L85.63-6.45L85.63-6.45Q85.94-5.38 86.47-4.56L86.47-4.56L86.47-4.56Q87-3.75 87.77-3.28L87.77-3.28L87.77-3.28Q88.53-2.81 89.44-2.81L89.44-2.81L89.44-2.81Q90.97-2.81 92.03-4.03L92.03-4.03L92.03-0.78L92.03-0.78Q91.28-0.38 90.30-0.11L90.30-0.11L90.30-0.11Q89.31 0.16 88.22 0.16L88.22 0.16L88.22 0.16Q86.97 0.16 85.77-0.30L85.77-0.30L85.77-0.30Q84.56-0.75 83.63-1.78L83.63-1.78L83.63-1.78Q82.44-3.13 81.88-5.11L81.88-5.11L81.88-5.11Q81.31-7.09 81.31-9.06ZM105.28-2.13L105.28-2.13L105.28-2.13Q105.28-1.19 104.63-0.53L104.63-0.53L104.63-0.53Q103.97 0.13 103.03 0.13L103.03 0.13L103.03 0.13Q102.09 0.13 101.45-0.53L101.45-0.53L101.45-0.53Q100.81-1.19 100.81-2.13L100.81-2.13L100.81-2.13Q100.81-3.06 101.47-3.70L101.47-3.70L101.47-3.70Q102.13-4.34 103.03-4.34L103.03-4.34L103.03-4.34Q103.97-4.34 104.63-3.70L104.63-3.70L104.63-3.70Q105.28-3.06 105.28-2.13Z" fill="#ffffff"></path></g></g><style>text {
  font-size: 64px;
  font-family: Arial Black;
  dominant-baseline: central;
  text-anchor: middle;
}</style></svg>